<svg width="600" height="400" viewBox="0 0 600 400" xmlns="http://www.w3.org/2000/svg">
  <!-- Background -->
  <rect width="600" height="400" fill="#ffffff" opacity="0.05"/>
  
  <!-- Abstract building/skyline -->
  <rect x="120" y="180" width="40" height="150" fill="#793a99" opacity="0.8" rx="1"/>
  <rect x="170" y="150" width="40" height="180" fill="#793a99" opacity="0.6" rx="1"/>
  <rect x="220" y="130" width="40" height="200" fill="#b62c7f" opacity="0.8" rx="1"/>
  <rect x="270" y="170" width="40" height="160" fill="#b62c7f" opacity="0.6" rx="1"/>
  <rect x="320" y="110" width="40" height="220" fill="#ee3f37" opacity="0.8" rx="1"/>
  <rect x="370" y="160" width="40" height="170" fill="#ee3f37" opacity="0.6" rx="1"/>
  <rect x="420" y="200" width="40" height="130" fill="#793a99" opacity="0.7" rx="1"/>
  
  <!-- Decorative elements -->
  <circle cx="200" cy="100" r="40" fill="#793a99" opacity="0.1"/>
  <circle cx="380" cy="90" r="60" fill="#b62c7f" opacity="0.1"/>
  <circle cx="470" cy="140" r="30" fill="#ee3f37" opacity="0.1"/>
  
  <!-- Abstract connection lines -->
  <line x1="140" y1="180" x2="190" y2="150" stroke="#ffffff" stroke-width="1" opacity="0.3"/>
  <line x1="190" y1="150" x2="240" y2="130" stroke="#ffffff" stroke-width="1" opacity="0.3"/>
  <line x1="240" y1="130" x2="290" y2="170" stroke="#ffffff" stroke-width="1" opacity="0.3"/>
  <line x1="290" y1="170" x2="340" y2="110" stroke="#ffffff" stroke-width="1" opacity="0.3"/>
  <line x1="340" y1="110" x2="390" y2="160" stroke="#ffffff" stroke-width="1" opacity="0.3"/>
  <line x1="390" y1="160" x2="440" y2="200" stroke="#ffffff" stroke-width="1" opacity="0.3"/>
  
  <!-- People silhouettes -->
  <circle cx="180" cy="350" r="10" fill="#ffffff" opacity="0.6"/>
  <rect x="175" y="360" width="10" height="20" fill="#ffffff" opacity="0.6" rx="5"/>
  
  <circle cx="220" cy="350" r="10" fill="#ffffff" opacity="0.6"/>
  <rect x="215" y="360" width="10" height="20" fill="#ffffff" opacity="0.6" rx="5"/>
  
  <circle cx="260" cy="350" r="10" fill="#ffffff" opacity="0.6"/>
  <rect x="255" y="360" width="10" height="20" fill="#ffffff" opacity="0.6" rx="5"/>
  
  <circle cx="300" cy="350" r="10" fill="#ffffff" opacity="0.6"/>
  <rect x="295" y="360" width="10" height="20" fill="#ffffff" opacity="0.6" rx="5"/>
  
  <circle cx="340" cy="350" r="10" fill="#ffffff" opacity="0.6"/>
  <rect x="335" y="360" width="10" height="20" fill="#ffffff" opacity="0.6" rx="5"/>
  
  <circle cx="380" cy="350" r="10" fill="#ffffff" opacity="0.6"/>
  <rect x="375" y="360" width="10" height="20" fill="#ffffff" opacity="0.6" rx="5"/>
  
  <!-- Abstract financial elements -->
  <path d="M100 70 C 140 30, 200 90, 250 60 C 300 30, 350 80, 400 40 C 450 0, 500 50, 550 20" stroke="#793a99" stroke-width="1" fill="none" opacity="0.4"/>
  <path d="M100 90 C 140 50, 200 110, 250 80 C 300 50, 350 100, 400 60 C 450 20, 500 70, 550 40" stroke="#b62c7f" stroke-width="1" fill="none" opacity="0.4"/>
  <path d="M100 110 C 140 70, 200 130, 250 100 C 300 70, 350 120, 400 80 C 450 40, 500 90, 550 60" stroke="#ee3f37" stroke-width="1" fill="none" opacity="0.4"/>
</svg>