<svg width="500" height="500" viewBox="0 0 500 500" xmlns="http://www.w3.org/2000/svg">
  <!-- Abstract pattern background for luxury financial site -->
  <defs>
    <!-- Gradient definitions -->
    <linearGradient id="purpleGradient" x1="0%" y1="0%" x2="100%" y2="100%">
      <stop offset="0%" stop-color="#793a99" stop-opacity="0.05"/>
      <stop offset="100%" stop-color="#793a99" stop-opacity="0.2"/>
    </linearGradient>
    <linearGradient id="pinkGradient" x1="100%" y1="0%" x2="0%" y2="100%">
      <stop offset="0%" stop-color="#b62c7f" stop-opacity="0.05"/>
      <stop offset="100%" stop-color="#b62c7f" stop-opacity="0.2"/>
    </linearGradient>
    <linearGradient id="redGradient" x1="50%" y1="0%" x2="50%" y2="100%">
      <stop offset="0%" stop-color="#ee3f37" stop-opacity="0.05"/>
      <stop offset="100%" stop-color="#ee3f37" stop-opacity="0.15"/>
    </linearGradient>
    
    <!-- Pattern definition -->
    <pattern id="luxuryPattern" x="0" y="0" width="50" height="50" patternUnits="userSpaceOnUse">
      <circle cx="25" cy="25" r="1" fill="#793a99" opacity="0.2"/>
      <circle cx="0" cy="0" r="1" fill="#793a99" opacity="0.2"/>
      <circle cx="0" cy="50" r="1" fill="#793a99" opacity="0.2"/>
      <circle cx="50" cy="0" r="1" fill="#793a99" opacity="0.2"/>
      <circle cx="50" cy="50" r="1" fill="#793a99" opacity="0.2"/>
    </pattern>
  </defs>
  
  <!-- Background rectangles with gradients -->
  <rect width="500" height="500" fill="url(#purpleGradient)"/>
  
  <!-- Overlapping shapes -->
  <circle cx="100" cy="100" r="200" fill="url(#pinkGradient)" opacity="0.3"/>
  <circle cx="400" cy="400" r="250" fill="url(#redGradient)" opacity="0.3"/>
  
  <!-- Pattern overlay -->
  <rect width="500" height="500" fill="url(#luxuryPattern)"/>
  
  <!-- Decorative elements -->
  <line x1="0" y1="0" x2="500" y2="500" stroke="#793a99" stroke-width="0.5" opacity="0.1"/>
  <line x1="500" y1="0" x2="0" y2="500" stroke="#b62c7f" stroke-width="0.5" opacity="0.1"/>
  <line x1="250" y1="0" x2="250" y2="500" stroke="#ee3f37" stroke-width="0.5" opacity="0.1"/>
  <line x1="0" y1="250" x2="500" y2="250" stroke="#ee3f37" stroke-width="0.5" opacity="0.1"/>
  
  <!-- Subtle grid lines -->
  <g opacity="0.1">
    <line x1="0" y1="100" x2="500" y2="100" stroke="#000" stroke-width="0.2"/>
    <line x1="0" y1="200" x2="500" y2="200" stroke="#000" stroke-width="0.2"/>
    <line x1="0" y1="300" x2="500" y2="300" stroke="#000" stroke-width="0.2"/>
    <line x1="0" y1="400" x2="500" y2="400" stroke="#000" stroke-width="0.2"/>
    <line x1="100" y1="0" x2="100" y2="500" stroke="#000" stroke-width="0.2"/>
    <line x1="200" y1="0" x2="200" y2="500" stroke="#000" stroke-width="0.2"/>
    <line x1="300" y1="0" x2="300" y2="500" stroke="#000" stroke-width="0.2"/>
    <line x1="400" y1="0" x2="400" y2="500" stroke="#000" stroke-width="0.2"/>
  </g>
</svg>