<svg width="600" height="400" viewBox="0 0 600 400" xmlns="http://www.w3.org/2000/svg">
  <!-- Background -->
  <rect width="600" height="400" fill="#ffffff" opacity="0.05"/>
  
  <!-- Decorative elements -->
  <circle cx="300" cy="200" r="150" fill="#793a99" opacity="0.1"/>
  <circle cx="400" cy="120" r="80" fill="#b62c7f" opacity="0.1"/>
  <circle cx="180" cy="250" r="100" fill="#ee3f37" opacity="0.1"/>
  
  <!-- Bar chart -->
  <rect x="180" y="240" width="30" height="80" rx="4" fill="#793a99" opacity="0.8"/>
  <rect x="230" y="220" width="30" height="100" rx="4" fill="#793a99" opacity="0.9"/>
  <rect x="280" y="200" width="30" height="120" rx="4" fill="#b62c7f" opacity="0.8"/>
  <rect x="330" y="180" width="30" height="140" rx="4" fill="#b62c7f" opacity="0.9"/>
  <rect x="380" y="160" width="30" height="160" rx="4" fill="#ee3f37" opacity="0.8"/>
  
  <!-- Line -->
  <path d="M150 220 L200 190 L250 200 L300 150 L350 140 L400 120 L450 110" stroke="#793a99" stroke-width="3" fill="none" opacity="0.7"/>
  <circle cx="150" cy="220" r="4" fill="#793a99"/>
  <circle cx="200" cy="190" r="4" fill="#793a99"/>
  <circle cx="250" cy="200" r="4" fill="#793a99"/>
  <circle cx="300" cy="150" r="4" fill="#793a99"/>
  <circle cx="350" cy="140" r="4" fill="#793a99"/>
  <circle cx="400" cy="120" r="4" fill="#793a99"/>
  <circle cx="450" cy="110" r="4" fill="#793a99"/>
  
  <!-- Abstract financial elements -->
  <circle cx="150" cy="120" r="30" fill="none" stroke="#b62c7f" stroke-width="2" opacity="0.6"/>
  <circle cx="450" cy="280" r="40" fill="none" stroke="#ee3f37" stroke-width="2" opacity="0.6"/>
  
  <!-- Grid lines -->
  <line x1="150" y1="320" x2="450" y2="320" stroke="#000000" stroke-width="1" opacity="0.2"/>
  <line x1="150" y1="280" x2="450" y2="280" stroke="#000000" stroke-width="0.5" opacity="0.1"/>
  <line x1="150" y1="240" x2="450" y2="240" stroke="#000000" stroke-width="0.5" opacity="0.1"/>
  <line x1="150" y1="200" x2="450" y2="200" stroke="#000000" stroke-width="0.5" opacity="0.1"/>
  <line x1="150" y1="160" x2="450" y2="160" stroke="#000000" stroke-width="0.5" opacity="0.1"/>
  <line x1="150" y1="120" x2="450" y2="120" stroke="#000000" stroke-width="0.5" opacity="0.1"/>
</svg>