<svg width="800" height="600" viewBox="0 0 800 600" xmlns="http://www.w3.org/2000/svg">
  <!-- Background -->
  <rect width="800" height="600" fill="#f5f5f5"/>
  
  <!-- Floor -->
  <rect x="50" y="450" width="700" height="150" fill="#e0e0e0"/>
  <rect x="50" y="450" width="700" height="5" fill="#ccc"/>
  
  <!-- Left Wall -->
  <rect x="50" y="100" width="5" height="350" fill="#ddd"/>
  
  <!-- Right Wall -->
  <rect x="745" y="100" width="5" height="350" fill="#ddd"/>
  
  <!-- Back Wall -->
  <rect x="50" y="100" width="700" height="5" fill="#ddd"/>
  
  <!-- Windows on back wall -->
  <rect x="150" y="120" width="120" height="180" fill="#a8d8ff" opacity="0.8"/>
  <rect x="150" y="120" width="120" height="180" fill="none" stroke="#ddd" stroke-width="5"/>
  <line x1="210" y1="120" x2="210" y2="300" stroke="#ddd" stroke-width="5"/>
  <line x1="150" y1="210" x2="270" y2="210" stroke="#ddd" stroke-width="5"/>
  
  <rect x="340" y="120" width="120" height="180" fill="#a8d8ff" opacity="0.8"/>
  <rect x="340" y="120" width="120" height="180" fill="none" stroke="#ddd" stroke-width="5"/>
  <line x1="400" y1="120" x2="400" y2="300" stroke="#ddd" stroke-width="5"/>
  <line x1="340" y1="210" x2="460" y2="210" stroke="#ddd" stroke-width="5"/>
  
  <rect x="530" y="120" width="120" height="180" fill="#a8d8ff" opacity="0.8"/>
  <rect x="530" y="120" width="120" height="180" fill="none" stroke="#ddd" stroke-width="5"/>
  <line x1="590" y1="120" x2="590" y2="300" stroke="#ddd" stroke-width="5"/>
  <line x1="530" y1="210" x2="650" y2="210" stroke="#ddd" stroke-width="5"/>
  
  <!-- Office desks -->
  <rect x="120" y="350" width="180" height="80" rx="5" fill="#793a99" opacity="0.15"/>
  <rect x="120" y="430" width="180" height="10" rx="2" fill="#793a99" opacity="0.3"/>
  
  <rect x="500" y="350" width="180" height="80" rx="5" fill="#b62c7f" opacity="0.15"/>
  <rect x="500" y="430" width="180" height="10" rx="2" fill="#b62c7f" opacity="0.3"/>
  
  <!-- Center meeting area with sofa/chairs -->
  <rect x="330" y="380" width="140" height="60" rx="10" fill="#793a99" opacity="0.3"/>
  <rect x="350" y="370" width="100" height="10" rx="5" fill="#793a99" opacity="0.4"/>
  
  <rect x="300" y="400" width="50" height="50" rx="5" fill="#b62c7f" opacity="0.2"/>
  <rect x="450" y="400" width="50" height="50" rx="5" fill="#b62c7f" opacity="0.2"/>
  
  <!-- Office chairs -->
  <circle cx="160" y="340" r="15" fill="#666" opacity="0.5"/>
  <rect x="150" y="320" width="20" height="20" rx="3" fill="#666" opacity="0.5"/>
  
  <circle cx="260" y="340" r="15" fill="#666" opacity="0.5"/>
  <rect x="250" y="320" width="20" height="20" rx="3" fill="#666" opacity="0.5"/>
  
  <circle cx="540" y="340" r="15" fill="#666" opacity="0.5"/>
  <rect x="530" y="320" width="20" height="20" rx="3" fill="#666" opacity="0.5"/>
  
  <circle cx="640" y="340" r="15" fill="#666" opacity="0.5"/>
  <rect x="630" y="320" width="20" height="20" rx="3" fill="#666" opacity="0.5"/>
  
  <!-- Decorative elements -->
  <rect x="685" y="200" width="40" height="100" fill="#5a835a" opacity="0.6"/>
  <rect x="695" y="180" width="20" height="20" fill="#5a835a" opacity="0.8"/>
  
  <rect x="75" y="200" width="40" height="100" fill="#5a835a" opacity="0.6"/>
  <rect x="85" y="180" width="20" height="20" fill="#5a835a" opacity="0.8"/>
  
  <!-- Ceiling light fixtures -->
  <rect x="200" y="130" width="40" height="10" fill="#fff" stroke="#ddd" stroke-width="1"/>
  <rect x="400" y="130" width="40" height="10" fill="#fff" stroke="#ddd" stroke-width="1"/>
  <rect x="600" y="130" width="40" height="10" fill="#fff" stroke="#ddd" stroke-width="1"/>
  
  <!-- Picture frames on wall -->
  <rect x="310" y="200" width="40" height="60" fill="none" stroke="#793a99" stroke-width="3" opacity="0.5"/>
  <rect x="450" y="200" width="40" height="60" fill="none" stroke="#b62c7f" stroke-width="3" opacity="0.5"/>
</svg>
